<?xml version="1.0" encoding="UTF-8" standalone="no"?>
<svg
   version="1.1"
   id="Layer_1"
   x="0px"
   y="0px"
   viewBox="0 0 122.88 99.45"
   style="enable-background:new 0 0 122.88 99.45"
   xml:space="preserve"
   sodipodi:docname="semesters.svg"
   inkscape:version="1.3.2 (091e20ef0f, 2023-11-25, custom)"
   xmlns:inkscape="http://www.inkscape.org/namespaces/inkscape"
   xmlns:sodipodi="http://sodipodi.sourceforge.net/DTD/sodipodi-0.dtd"
   xmlns="http://www.w3.org/2000/svg"
   xmlns:svg="http://www.w3.org/2000/svg"><defs
     id="defs3" /><sodipodi:namedview
     id="namedview3"
     pagecolor="#ffffff"
     bordercolor="#000000"
     borderopacity="0.25"
     inkscape:showpageshadow="2"
     inkscape:pageopacity="0.0"
     inkscape:pagecheckerboard="0"
     inkscape:deskcolor="#d1d1d1"
     inkscape:zoom="6.6080731"
     inkscape:cx="61.439999"
     inkscape:cy="49.71192"
     inkscape:window-width="1536"
     inkscape:window-height="841"
     inkscape:window-x="0"
     inkscape:window-y="0"
     inkscape:window-maximized="1"
     inkscape:current-layer="Layer_1" /><style
     type="text/css"
     id="style1">.st0{fill-rule:evenodd;clip-rule:evenodd;}</style><g
     id="g3"><path
       class="st0"
       d="m 63.964888,8.7398325 h 15.299357 c 1.53658,0 2.790762,1.2541819 2.790762,2.7907625 V 23.856461 H 61.174125 V 11.530595 c 0,-1.5365806 1.254182,-2.7907625 2.790763,-2.7907625 z M 82.063313,31.389858 V 68.923949 H 61.174125 V 31.389858 Z m 0,45.075794 v 11.462059 c 0,1.53658 -1.254182,2.790762 -2.790762,2.790762 H 63.964888 c -1.536581,0 -2.790763,-1.254182 -2.790763,-2.790762 V 76.465652 Z"
       id="path1"
       style="stroke-width:0.830584" /><path
       class="st0"
       d="m 94.372568,8.7398325 h 15.299352 c 1.53658,0 2.79077,1.2541819 2.79077,2.7907625 v 12.325866 h -0.0166 -20.864273 V 11.530595 c 0,-1.5365806 1.262488,-2.7907625 2.790763,-2.7907625 z M 112.47099,31.389858 V 68.923949 H 91.581806 V 31.389858 h 20.872574 z m 0,45.075794 v 11.462059 c 0,1.53658 -1.25418,2.790762 -2.79076,2.790762 H 94.380874 c -1.536581,0 -2.790763,-1.254182 -2.790763,-2.790762 V 76.465652 Z"
       id="path2"
       style="stroke-width:0.830584" /><path
       class="st0"
       d="m 40.268326,8.5903274 14.377409,5.2326796 c 1.445216,0.523268 2.192742,2.1346 1.669474,3.579817 l -4.211061,11.578341 -19.6267,-7.143023 4.211061,-11.578341 C 37.220083,8.8145851 38.831416,8.0670595 40.268326,8.5903274 Z M 49.529338,36.066046 36.696815,71.340949 17.070115,64.197926 29.902638,28.93133 Z M 34.122004,78.42583 30.201648,89.190199 c -0.523268,1.445216 -2.134601,2.192742 -3.579817,1.669474 l -14.37741,-5.23268 c -1.445216,-0.523268 -2.192742,-2.1346 -1.669474,-3.579817 l 3.920357,-10.764368 z"
       id="path3"
       style="stroke-width:0.830584" /></g></svg>
